<?xml version="1.0" standalone="no"?>
<!DOCTYPE svg PUBLIC "-//W3C//DTD SVG 20010904//EN"
 "http://www.w3.org/TR/2001/REC-SVG-20010904/DTD/svg10.dtd">
<svg version="1.0" xmlns="http://www.w3.org/2000/svg"
 width="1883.000000pt" height="1883.000000pt" viewBox="0 0 1883.000000 1883.000000"
 preserveAspectRatio="xMidYMid meet">
<metadata>
Created by potrace 1.14, written by Peter Selinger 2001-2017
</metadata>
<g transform="translate(0.000000,1883.000000) scale(0.100000,-0.100000)"
fill="#000000" stroke="none">
<path d="M9000 18200 c-192 -24 -353 -99 -496 -232 l-61 -58 -2009 -2 -2009
-3 -80 -23 c-351 -99 -595 -379 -635 -730 -5 -48 -10 -312 -10 -587 l0 -500
-1498 -544 c-823 -299 -1535 -561 -1580 -582 -244 -112 -415 -322 -478 -586
-21 -88 -22 -275 -1 -363 12 -49 2989 -8245 3466 -9540 l86 -235 5 -780 c6
-766 6 -781 28 -860 94 -337 354 -575 693 -633 91 -15 102 -19 111 -42 6 -14
52 -140 104 -280 61 -165 111 -283 142 -334 109 -182 302 -325 517 -382 100
-27 333 -25 425 3 36 11 555 199 1154 417 599 219 1160 422 1245 452 86 31
218 78 294 105 l139 49 857 0 857 0 240 -84 c131 -46 767 -276 1413 -511 764
-278 1201 -432 1255 -442 96 -18 268 -13 361 12 86 24 230 94 302 149 76 57
143 130 198 216 51 78 57 91 150 345 40 110 83 225 95 255 l21 56 97 11 c377
46 680 327 741 688 6 36 12 387 15 861 l4 802 30 83 c626 1711 3475 9552 3486
9594 40 147 28 350 -29 502 -75 198 -258 395 -441 473 -27 12 -717 265 -1534
562 -817 297 -1493 544 -1502 549 -17 9 -18 46 -18 567 0 520 -1 562 -20 639
-73 304 -302 536 -616 625 l-79 23 -2029 3 -2030 2 -60 58 c-76 73 -138 115
-229 157 -185 85 -392 102 -582 48 -77 -22 -113 -21 -205 4 -90 24 -211 34
-300 23z m781 -4195 c413 -50 772 -177 1089 -382 539 -351 880 -902 970 -1568
6 -44 13 -154 17 -245 21 -585 -144 -1108 -484 -1531 -92 -115 -266 -287 -393
-388 -58 -46 -208 -152 -335 -236 -252 -167 -372 -263 -510 -406 -337 -349
-478 -751 -503 -1439 l-7 -175 -510 0 -510 0 3 185 c6 447 65 858 164 1155
187 562 480 895 1170 1333 186 118 278 191 418 331 217 217 357 459 424 731
32 128 35 150 45 291 14 204 -9 406 -66 577 -238 711 -1094 1081 -1893 816
-225 -75 -405 -187 -558 -349 -178 -188 -276 -370 -337 -630 -21 -88 -30 -144
-51 -312 l-5 -43 -535 0 -534 0 0 48 c0 78 28 291 55 423 202 965 970 1651
2021 1804 256 37 599 41 855 10z m-442 -7381 c68 -18 184 -72 247 -115 71 -48
160 -142 211 -220 145 -225 158 -523 32 -759 -213 -400 -687 -536 -1077 -309
-31 19 -99 75 -149 126 -81 81 -99 105 -142 195 -27 57 -55 128 -63 158 -19
81 -17 290 5 370 24 90 86 213 144 285 98 121 260 231 392 265 120 31 286 33
400 4z"/>
</g>
</svg>
