<svg width="14" height="22" viewBox="0 0 14 22" fill="none" xmlns="http://www.w3.org/2000/svg">
    <path d="M4.32955 14.8949V14.5568C4.33617 13.3968 4.43892 12.4721 4.63778 11.7827C4.84328 11.0933 5.14157 10.5365 5.53267 10.1122C5.92377 9.68797 6.39441 9.3035 6.9446 8.95881C7.35559 8.69365 7.72348 8.41856 8.0483 8.13352C8.37311 7.84848 8.63163 7.53362 8.82386 7.18892C9.0161 6.83759 9.11222 6.4465 9.11222 6.01562C9.11222 5.55824 9.00284 5.1572 8.78409 4.8125C8.56534 4.4678 8.27036 4.20265 7.89915 4.01704C7.53456 3.83144 7.13021 3.73864 6.68608 3.73864C6.25521 3.73864 5.84754 3.83475 5.46307 4.02699C5.0786 4.21259 4.76373 4.491 4.51847 4.86222C4.2732 5.2268 4.14063 5.68087 4.12074 6.22443H0.0639205C0.0970644 4.89867 0.415246 3.80492 1.01847 2.94318C1.62169 2.07481 2.42045 1.4285 3.41477 1.00426C4.40909 0.573389 5.50616 0.357954 6.70597 0.357954C8.02509 0.357954 9.19176 0.576704 10.206 1.0142C11.2202 1.44507 12.0156 2.0715 12.5923 2.89347C13.169 3.71543 13.4574 4.70644 13.4574 5.86648C13.4574 6.64204 13.3281 7.33144 13.0696 7.93466C12.8177 8.53125 12.4631 9.06155 12.0057 9.52557C11.5483 9.98295 11.008 10.3973 10.3849 10.7685C9.86127 11.08 9.4304 11.4048 9.09233 11.7429C8.76089 12.081 8.51231 12.4721 8.34659 12.9162C8.1875 13.3603 8.10464 13.9072 8.09801 14.5568V14.8949H4.32955ZM6.2983 21.2585C5.63542 21.2585 5.06866 21.0265 4.59801 20.5625C4.134 20.0919 3.9053 19.5284 3.91193 18.8722C3.9053 18.2225 4.134 17.6657 4.59801 17.2017C5.06866 16.7377 5.63542 16.5057 6.2983 16.5057C6.92803 16.5057 7.48153 16.7377 7.95881 17.2017C8.43608 17.6657 8.67803 18.2225 8.68466 18.8722C8.67803 19.3097 8.56203 19.7107 8.33665 20.0753C8.1179 20.4332 7.82955 20.7216 7.47159 20.9403C7.11364 21.1525 6.72254 21.2585 6.2983 21.2585Z"
          fill="#FBD74E" fill-opacity="0.6"/>
</svg>
